<svg id="Icon" xmlns="http://www.w3.org/2000/svg" viewBox="0 0 24 24">
  <defs>
    <style>
      .cls-1 {
        fill: #000028;
      }

      .cls-2 {
        fill: none;
      }
    </style>
  </defs>
  <path class="cls-1" d="M22,9.64l-7.11-.77L12,2,9.11,8.87,2,9.64l5.33,5L5.82,22,12,18.22,18.18,22l-1.51-7.35Zm-7.28,5.41.58,2.85L13,16.52l-1-.64-1,.64L8.7,17.9l.58-2.85L9.51,14,8.7,13.2l-2.16-2,2.78-.3,1.18-.12L11,9.65,12,7.16l1.05,2.49.45,1.09,1.18.12,2.78.3-2.16,2-.81.76Z"/>
  <rect class="cls-2" width="24" height="24"/>
</svg>
