<?xml version="1.0" encoding="utf-8"?>
<!-- Generator: Adobe Illustrator 24.3.0, SVG Export Plug-In . SVG Version: 6.00 Build 0)  -->
<svg version="1.1" id="Icon" xmlns="http://www.w3.org/2000/svg" xmlns:xlink="http://www.w3.org/1999/xlink" x="0px" y="0px"
	 viewBox="0 0 24 24" style="enable-background:new 0 0 24 24;" xml:space="preserve">
<style type="text/css">
	.st0{fill:#FFFFFF;}
	.st1{fill:none;}
</style>
<path class="st0" d="M22,9.6l-7.1-0.8L12,2L9.1,8.9L2,9.6l5.3,5L5.8,22l6.2-3.8l6.2,3.8l-1.5-7.4L22,9.6z M14.7,15.1l0.6,2.8
	L13,16.5l-1-0.6l-1,0.6l-2.3,1.4L9.3,15l0.2-1l-0.8-0.8l-2.2-2l2.8-0.3l1.2-0.1L11,9.6l1-2.5l1.1,2.5l0.4,1.1l1.2,0.1l2.8,0.3
	l-2.2,2l-0.8,0.8L14.7,15.1z"/>
<rect class="st1" width="24" height="24"/>
</svg>
